<svg width="256" height="256" title="React.js" viewBox="0 0 256 256" fill="none" xmlns="http://www.w3.org/2000/svg" id="reactjs">
<style>
#reactjs {
    rect {fill: #15191C}

    @media (prefers-color-scheme: light) {
        rect {fill: #F4F2ED}
    }
}
</style>
<rect width="256" height="256" rx="40" fill="#15191C"/>
<path d="M144.76 127.948C144.76 132.271 143.044 136.417 139.988 139.474C136.932 142.532 132.786 144.25 128.464 144.252C124.139 144.252 119.992 142.534 116.935 139.477C113.877 136.419 112.159 132.272 112.159 127.948C112.159 123.625 113.876 119.479 116.932 116.422C119.988 113.364 124.133 111.646 128.456 111.644C132.78 111.644 136.927 113.361 139.985 116.419C143.043 119.477 144.76 123.624 144.76 127.948ZM164.069 50C154.254 50 141.414 57 128.427 69.1188C115.448 57.0656 102.6 50.1458 92.7927 50.1458C89.8031 50.1458 87.0833 50.824 84.7281 52.1729C74.7021 57.9552 72.4563 75.9729 77.6333 98.5844C55.4375 105.439 41 116.398 41 127.948C41 139.542 55.5104 150.53 77.7719 157.333C72.6385 180.032 74.9281 198.079 84.976 203.854C87.3094 205.218 90.0073 205.859 93.0115 205.859C102.819 205.859 115.667 198.859 128.653 186.726C141.632 198.786 154.48 205.706 164.288 205.706C167.277 205.706 169.997 205.05 172.352 203.701C182.371 197.926 184.624 179.908 179.447 157.29C201.562 150.494 216 139.512 216 127.948C216 116.354 201.49 105.366 179.228 98.5479C184.361 75.8708 182.072 57.8094 172.024 52.0271C169.705 50.6854 167.015 50.0073 164.069 50ZM164.032 57.9479V57.9917C165.673 57.9917 166.993 58.3125 168.101 58.9177C172.957 61.7031 175.065 72.2979 173.424 85.926C173.03 89.2802 172.389 92.8167 171.601 96.426C164.601 94.7052 156.974 93.3854 148.946 92.5323C144.133 85.9333 139.139 79.9396 134.107 74.6896C145.716 63.8979 156.617 57.9771 164.04 57.9552L164.032 57.9479ZM92.7927 58.0937C100.172 58.0937 111.124 63.9854 122.761 74.7187C117.759 79.9687 112.772 85.926 108.032 92.525C99.9604 93.3781 92.326 94.6979 85.3333 96.4479C84.5167 92.875 83.9115 89.4187 83.4813 86.0937C81.8042 72.4729 83.875 61.8854 88.6875 59.0635C90.0729 58.4073 91.6042 58.1302 92.7927 58.0937ZM128.391 80.3333C131.708 83.7458 135.026 87.5667 138.307 91.7375C135.099 91.5917 131.818 91.4896 128.5 91.4896C125.146 91.4896 121.828 91.5625 118.583 91.7375C121.792 87.5667 125.109 83.7531 128.391 80.3333ZM128.5 99.4813C133.896 99.4813 139.27 99.7292 144.556 100.159C147.517 104.403 150.404 108.931 153.182 113.722C155.895 118.389 158.359 123.128 160.605 127.911C158.359 132.687 155.895 137.464 153.219 142.13C150.448 146.943 147.582 151.522 144.615 155.766C139.306 156.225 133.925 156.48 128.5 156.48C123.104 156.48 117.73 156.225 112.444 155.802C109.483 151.558 106.596 147.023 103.818 142.24C101.105 137.573 98.6406 132.833 96.3948 128.05C98.6042 123.259 101.105 118.476 103.781 113.802C106.552 108.99 109.418 104.425 112.385 100.181C117.694 99.7146 123.075 99.4667 128.5 99.4667V99.4813ZM101.995 101.333C100.245 104.082 98.4948 106.897 96.8615 109.792C95.2208 112.635 93.6896 115.494 92.2312 118.352C90.299 113.569 88.6583 108.8 87.3021 104.155C91.9687 103.061 96.8906 102.084 101.995 101.333ZM154.932 101.333C160 102.084 164.885 103.01 169.559 104.155C168.247 108.764 166.606 113.503 164.747 118.25C163.289 115.406 161.757 112.541 160.08 109.69C158.44 106.831 156.69 104.046 154.94 101.333H154.932ZM177.267 106.255C180.796 107.349 184.15 108.567 187.293 109.886C199.922 115.282 208.089 122.341 208.089 127.941C208.052 133.541 199.885 140.628 187.256 145.987C184.194 147.3 180.84 148.481 177.376 149.582C175.334 142.597 172.666 135.32 169.355 127.853C172.636 120.437 175.261 113.197 177.267 106.241V106.255ZM79.5948 106.284C81.6219 113.284 84.2979 120.554 87.6156 128.014C84.3344 135.429 81.6948 142.67 79.6969 149.626C76.1677 148.532 72.8135 147.307 69.7073 145.98C57.0781 140.606 48.9115 133.541 48.9115 127.941C48.9115 122.341 57.0781 115.239 69.7073 109.886C72.7698 108.574 76.124 107.393 79.5948 106.284ZM164.747 137.493C166.679 142.283 168.32 147.059 169.676 151.697C165.009 152.842 160.08 153.811 154.976 154.541C156.726 151.806 158.476 148.984 160.117 146.097C161.757 143.253 163.281 140.351 164.747 137.493ZM92.2312 137.639C93.6896 140.497 95.2208 143.348 96.8979 146.206C98.575 149.05 100.289 151.835 102.039 154.541C96.9708 153.797 92.0854 152.864 87.4115 151.726C88.724 147.132 90.3719 142.378 92.224 137.631L92.2312 137.639ZM171.667 159.419C172.483 163.014 173.125 166.477 173.519 169.795C175.196 183.416 173.125 194.003 168.312 196.832C167.241 197.489 165.848 197.766 164.207 197.766C156.828 197.766 145.876 191.881 134.239 181.141C139.241 175.891 144.228 169.941 148.968 163.349C157.04 162.489 164.674 161.169 171.667 159.419ZM85.4063 159.492C92.4062 161.198 100.033 162.518 108.061 163.371C112.874 169.97 117.869 175.964 122.9 181.206C111.27 192.02 100.354 197.941 92.9313 197.941C91.3271 197.904 89.9708 197.576 88.899 196.978C84.0427 194.207 81.9354 183.605 83.576 169.977C83.9698 166.623 84.6188 163.094 85.4063 159.492ZM118.656 164.158C121.865 164.304 125.146 164.406 128.464 164.406C131.818 164.406 135.135 164.333 138.38 164.158C135.172 168.329 131.854 172.143 128.573 175.57C125.255 172.143 121.937 168.329 118.656 164.158Z" fill="#04DBFB"/>
</svg>