<svg xmlns="http://www.w3.org/2000/svg" width="1200" height="675" viewBox="0 0 1200 675" role="img" aria-label="farmgame preview">
  <defs>
    <linearGradient id="bg" x1="0" y1="0" x2="1" y2="1">
      <stop offset="0" stop-color="#102112"/>
      <stop offset="0.52" stop-color="#31572c"/>
      <stop offset="1" stop-color="#0f172a"/>
    </linearGradient>
    <radialGradient id="orb" cx="50%" cy="50%" r="50%">
      <stop offset="0" stop-color="#84cc16" stop-opacity="0.92"/>
      <stop offset="0.58" stop-color="#84cc16" stop-opacity="0.20"/>
      <stop offset="1" stop-color="#84cc16" stop-opacity="0"/>
    </radialGradient>
    <filter id="blur"><feGaussianBlur stdDeviation="24"/></filter>
    <filter id="shadow" x="-20%" y="-20%" width="140%" height="140%"><feDropShadow dx="0" dy="24" stdDeviation="28" flood-color="#020617" flood-opacity="0.36"/></filter>
  </defs>
  <rect width="1200" height="675" fill="url(#bg)"/>
  <circle cx="966" cy="128" r="268" fill="url(#orb)" filter="url(#blur)"/>
  <circle cx="120" cy="596" r="320" fill="#84cc16" opacity="0.12" filter="url(#blur)"/>
  <path d="M0 532 C270 456 420 618 682 548 C884 494 1016 470 1200 512 L1200 675 L0 675 Z" fill="#ffffff" opacity="0.08"/>
  <g opacity="0.15" stroke="#fff7ed" stroke-width="1">
    <path d="M94 96 H1096"/><path d="M94 575 H1096"/><path d="M132 56 V623"/><path d="M1068 56 V623"/>
  </g>
  <g filter="url(#shadow)">
    <rect x="98" y="86" width="1004" height="503" rx="44" fill="rgba(15,23,42,0.56)" stroke="rgba(255,255,255,0.36)"/>
    <rect x="98" y="86" width="1004" height="76" rx="44" fill="rgba(255,255,255,0.16)"/>
    <circle cx="142" cy="124" r="12" fill="#ff6b5f"/>
    <circle cx="180" cy="124" r="12" fill="#ffd166"/>
    <circle cx="218" cy="124" r="12" fill="#5bd66f"/>
    <text x="262" y="132" font-family="Manrope, Inter, Arial, sans-serif" font-size="24" font-weight="800" fill="#fff7ed">xelvhk OS / visual case</text>
  </g>
  
      <g transform="translate(790 225)">
        <circle cx="120" cy="64" r="44" fill="#fde68a" opacity="0.92"/>
        <path d="M6 238 C70 160 152 160 246 238 Z" fill="#166534" opacity="0.9"/>
        <path d="M28 238 C92 184 164 184 232 238 Z" fill="#65a30d" opacity="0.95"/>
        <rect x="84" y="142" width="96" height="80" rx="8" fill="#7f1d1d"/>
        <path d="M70 150 L132 100 L194 150 Z" fill="#ef4444"/>
        <rect x="118" y="174" width="28" height="48" rx="4" fill="#451a03"/>
        <path d="M0 244 H260" stroke="#84cc16" stroke-width="5" opacity="0.8"/>
      </g>
  <g transform="translate(148 258)">
    <text x="0" y="0" font-family="Manrope, Inter, Arial, sans-serif" font-size="44" font-weight="900" fill="#fff7ed">farmgame</text>
    <text x="0" y="52" font-family="Manrope, Inter, Arial, sans-serif" font-size="24" font-weight="600" fill="#fed7aa">Cozy static landing page</text>
    <rect x="0" y="92" width="484" height="4" rx="2" fill="#84cc16"/>
    <g transform="translate(0 126)">
      <g transform="translate(0 0)">
        <rect width="90" height="36" rx="18" fill="rgba(255,255,255,0.16)" stroke="#84cc16" stroke-opacity="0.55"/>
        <text x="45" y="24" text-anchor="middle" font-family="Manrope, Inter, Arial, sans-serif" font-size="14" font-weight="800" fill="#fff7ed">HTML</text>
      </g>
      <g transform="translate(104 0)">
        <rect width="90" height="36" rx="18" fill="rgba(255,255,255,0.16)" stroke="#84cc16" stroke-opacity="0.55"/>
        <text x="45" y="24" text-anchor="middle" font-family="Manrope, Inter, Arial, sans-serif" font-size="14" font-weight="800" fill="#fff7ed">CSS</text>
      </g>
      <g transform="translate(208 0)">
        <rect width="114" height="36" rx="18" fill="rgba(255,255,255,0.16)" stroke="#84cc16" stroke-opacity="0.55"/>
        <text x="57" y="24" text-anchor="middle" font-family="Manrope, Inter, Arial, sans-serif" font-size="14" font-weight="800" fill="#fff7ed">Landing</text>
      </g>
    </g>
  </g>
  <g opacity="0.55" fill="none" stroke="#84cc16" stroke-width="2">
    <path d="M735 486 h210 q18 0 18 18 v34"/>
    <path d="M708 516 h126"/>
    <circle cx="692" cy="516" r="5" fill="#84cc16"/>
  </g>
</svg>