<svg xmlns="http://www.w3.org/2000/svg" width="1200" height="675" viewBox="0 0 1200 675" role="img" aria-label="Burgers restaurant site preview">
  <defs>
    <linearGradient id="bg" x1="0" y1="0" x2="1" y2="1">
      <stop offset="0" stop-color="#1c1008"/>
      <stop offset="0.52" stop-color="#4a1d0b"/>
      <stop offset="1" stop-color="#111827"/>
    </linearGradient>
    <radialGradient id="orb" cx="50%" cy="50%" r="50%">
      <stop offset="0" stop-color="#f97316" stop-opacity="0.92"/>
      <stop offset="0.58" stop-color="#f97316" stop-opacity="0.20"/>
      <stop offset="1" stop-color="#f97316" stop-opacity="0"/>
    </radialGradient>
    <filter id="blur"><feGaussianBlur stdDeviation="24"/></filter>
    <filter id="shadow" x="-20%" y="-20%" width="140%" height="140%"><feDropShadow dx="0" dy="24" stdDeviation="28" flood-color="#020617" flood-opacity="0.36"/></filter>
  </defs>
  <rect width="1200" height="675" fill="url(#bg)"/>
  <circle cx="966" cy="128" r="268" fill="url(#orb)" filter="url(#blur)"/>
  <circle cx="120" cy="596" r="320" fill="#f97316" opacity="0.12" filter="url(#blur)"/>
  <path d="M0 532 C270 456 420 618 682 548 C884 494 1016 470 1200 512 L1200 675 L0 675 Z" fill="#ffffff" opacity="0.08"/>
  <g opacity="0.15" stroke="#fff7ed" stroke-width="1">
    <path d="M94 96 H1096"/><path d="M94 575 H1096"/><path d="M132 56 V623"/><path d="M1068 56 V623"/>
  </g>
  <g filter="url(#shadow)">
    <rect x="98" y="86" width="1004" height="503" rx="44" fill="rgba(15,23,42,0.56)" stroke="rgba(255,255,255,0.36)"/>
    <rect x="98" y="86" width="1004" height="76" rx="44" fill="rgba(255,255,255,0.16)"/>
    <circle cx="142" cy="124" r="12" fill="#ff6b5f"/>
    <circle cx="180" cy="124" r="12" fill="#ffd166"/>
    <circle cx="218" cy="124" r="12" fill="#5bd66f"/>
    <text x="262" y="132" font-family="Manrope, Inter, Arial, sans-serif" font-size="24" font-weight="800" fill="#fff7ed">xelvhk OS / visual case</text>
  </g>
  
      <g transform="translate(782 246)">
        <ellipse cx="130" cy="54" rx="128" ry="50" fill="#f59e0b" opacity="0.95"/>
        <path d="M24 82 C88 114 172 114 236 82" stroke="#fed7aa" stroke-width="18" stroke-linecap="round" opacity="0.95"/>
        <rect x="28" y="98" width="204" height="28" rx="14" fill="#78350f"/>
        <path d="M42 134 H220" stroke="#fde68a" stroke-width="18" stroke-linecap="round"/>
        <path d="M38 160 C95 186 165 186 222 160" stroke="#f97316" stroke-width="28" stroke-linecap="round"/>
        <ellipse cx="130" cy="187" rx="112" ry="34" fill="#92400e"/>
        <g fill="#fff7ed" opacity="0.8">
          <circle cx="78" cy="42" r="5"/><circle cx="126" cy="32" r="5"/><circle cx="174" cy="44" r="5"/>
        </g>
      </g>
  <g transform="translate(148 258)">
    <text x="0" y="0" font-family="Manrope, Inter, Arial, sans-serif" font-size="44" font-weight="900" fill="#fff7ed">Burgers restaurant site</text>
    <text x="0" y="52" font-family="Manrope, Inter, Arial, sans-serif" font-size="24" font-weight="600" fill="#fed7aa">Bold food landing page concept</text>
    <rect x="0" y="92" width="484" height="4" rx="2" fill="#f97316"/>
    <g transform="translate(0 126)">
      <g transform="translate(0 0)">
        <rect width="114" height="36" rx="18" fill="rgba(255,255,255,0.16)" stroke="#f97316" stroke-opacity="0.55"/>
        <text x="57" y="24" text-anchor="middle" font-family="Manrope, Inter, Arial, sans-serif" font-size="14" font-weight="800" fill="#fff7ed">Angular</text>
      </g>
      <g transform="translate(128 0)">
        <rect width="114" height="36" rx="18" fill="rgba(255,255,255,0.16)" stroke="#f97316" stroke-opacity="0.55"/>
        <text x="57" y="24" text-anchor="middle" font-family="Manrope, Inter, Arial, sans-serif" font-size="14" font-weight="800" fill="#fff7ed">Landing</text>
      </g>
      <g transform="translate(256 0)">
        <rect width="114" height="36" rx="18" fill="rgba(255,255,255,0.16)" stroke="#f97316" stroke-opacity="0.55"/>
        <text x="57" y="24" text-anchor="middle" font-family="Manrope, Inter, Arial, sans-serif" font-size="14" font-weight="800" fill="#fff7ed">Food UI</text>
      </g>
    </g>
  </g>
  <g opacity="0.55" fill="none" stroke="#f97316" stroke-width="2">
    <path d="M735 486 h210 q18 0 18 18 v34"/>
    <path d="M708 516 h126"/>
    <circle cx="692" cy="516" r="5" fill="#f97316"/>
  </g>
</svg>