<svg xmlns="http://www.w3.org/2000/svg" width="1200" height="675" viewBox="0 0 1200 675" role="img" aria-label="fashion_store_with_React preview">
  <defs>
    <linearGradient id="bg" x1="0" y1="0" x2="1" y2="1">
      <stop offset="0" stop-color="#25102a"/>
      <stop offset="0.52" stop-color="#831843"/>
      <stop offset="1" stop-color="#111827"/>
    </linearGradient>
    <radialGradient id="orb" cx="50%" cy="50%" r="50%">
      <stop offset="0" stop-color="#f472b6" stop-opacity="0.92"/>
      <stop offset="0.58" stop-color="#f472b6" stop-opacity="0.20"/>
      <stop offset="1" stop-color="#f472b6" stop-opacity="0"/>
    </radialGradient>
    <filter id="blur"><feGaussianBlur stdDeviation="24"/></filter>
    <filter id="shadow" x="-20%" y="-20%" width="140%" height="140%"><feDropShadow dx="0" dy="24" stdDeviation="28" flood-color="#020617" flood-opacity="0.36"/></filter>
  </defs>
  <rect width="1200" height="675" fill="url(#bg)"/>
  <circle cx="966" cy="128" r="268" fill="url(#orb)" filter="url(#blur)"/>
  <circle cx="120" cy="596" r="320" fill="#f472b6" opacity="0.12" filter="url(#blur)"/>
  <path d="M0 532 C270 456 420 618 682 548 C884 494 1016 470 1200 512 L1200 675 L0 675 Z" fill="#ffffff" opacity="0.08"/>
  <g opacity="0.15" stroke="#fff7ed" stroke-width="1">
    <path d="M94 96 H1096"/><path d="M94 575 H1096"/><path d="M132 56 V623"/><path d="M1068 56 V623"/>
  </g>
  <g filter="url(#shadow)">
    <rect x="98" y="86" width="1004" height="503" rx="44" fill="rgba(15,23,42,0.56)" stroke="rgba(255,255,255,0.36)"/>
    <rect x="98" y="86" width="1004" height="76" rx="44" fill="rgba(255,255,255,0.16)"/>
    <circle cx="142" cy="124" r="12" fill="#ff6b5f"/>
    <circle cx="180" cy="124" r="12" fill="#ffd166"/>
    <circle cx="218" cy="124" r="12" fill="#5bd66f"/>
    <text x="262" y="132" font-family="Manrope, Inter, Arial, sans-serif" font-size="24" font-weight="800" fill="#fff7ed">xelvhk OS / visual case</text>
  </g>
  
      <g transform="translate(790 228)">
        <rect x="42" y="82" width="166" height="152" rx="24" fill="rgba(255,255,255,0.13)" stroke="#f472b6" stroke-width="4"/>
        <path d="M78 96 C82 48 170 48 174 96" fill="none" stroke="#fce7f3" stroke-width="12" stroke-linecap="round"/>
        <path d="M74 128 H176" stroke="#f9a8d4" stroke-width="12" stroke-linecap="round"/>
        <path d="M74 164 H156" stroke="#f9a8d4" stroke-width="12" stroke-linecap="round" opacity="0.7"/>
        <circle cx="200" cy="64" r="44" fill="#f472b6" opacity="0.22"/>
        <circle cx="54" cy="232" r="40" fill="#f472b6" opacity="0.18"/>
      </g>
  <g transform="translate(148 258)">
    <text x="0" y="0" font-family="Manrope, Inter, Arial, sans-serif" font-size="44" font-weight="900" fill="#fff7ed">fashion_store_with_React</text>
    <text x="0" y="52" font-family="Manrope, Inter, Arial, sans-serif" font-size="24" font-weight="600" fill="#fed7aa">React storefront UI practice</text>
    <rect x="0" y="92" width="484" height="4" rx="2" fill="#f472b6"/>
    <g transform="translate(0 126)">
      <g transform="translate(0 0)">
        <rect width="94" height="36" rx="18" fill="rgba(255,255,255,0.16)" stroke="#f472b6" stroke-opacity="0.55"/>
        <text x="47" y="24" text-anchor="middle" font-family="Manrope, Inter, Arial, sans-serif" font-size="14" font-weight="800" fill="#fff7ed">React</text>
      </g>
      <g transform="translate(108 0)">
        <rect width="144" height="36" rx="18" fill="rgba(255,255,255,0.16)" stroke="#f472b6" stroke-opacity="0.55"/>
        <text x="72" y="24" text-anchor="middle" font-family="Manrope, Inter, Arial, sans-serif" font-size="14" font-weight="800" fill="#fff7ed">E-commerce</text>
      </g>
      <g transform="translate(266 0)">
        <rect width="90" height="36" rx="18" fill="rgba(255,255,255,0.16)" stroke="#f472b6" stroke-opacity="0.55"/>
        <text x="45" y="24" text-anchor="middle" font-family="Manrope, Inter, Arial, sans-serif" font-size="14" font-weight="800" fill="#fff7ed">UI</text>
      </g>
    </g>
  </g>
  <g opacity="0.55" fill="none" stroke="#f472b6" stroke-width="2">
    <path d="M735 486 h210 q18 0 18 18 v34"/>
    <path d="M708 516 h126"/>
    <circle cx="692" cy="516" r="5" fill="#f472b6"/>
  </g>
</svg>