<svg width="256" height="256" title="Canva" viewBox="0 0 256 256" fill="none" xmlns="http://www.w3.org/2000/svg">
<rect width="256" height="256" rx="40" fill="url(#linearGradient)"/>
<path d="M219.714 138.552C219.4 138.552 219.113 138.755 218.965 139.181C217.069 144.592 214.507 147.811 212.398 147.811C211.186 147.811 210.695 146.461 210.695 144.343C210.695 139.043 213.868 127.803 215.468 122.679C215.654 122.059 215.774 121.504 215.774 121.033C215.774 119.543 214.96 118.812 212.943 118.812C210.769 118.812 208.429 119.663 206.154 123.65C205.368 120.135 202.99 118.6 199.669 118.6C195.83 118.6 192.121 121.069 189.069 125.075C186.017 129.08 182.427 130.394 179.727 129.746C181.669 124.991 182.39 121.439 182.39 118.803C182.39 114.668 180.346 112.171 177.044 112.171C172.021 112.171 169.126 116.962 169.126 122.004C169.126 125.898 170.892 129.903 174.778 131.846C171.522 139.209 166.767 145.869 164.964 145.869C162.633 145.869 161.948 134.464 162.077 126.305C162.16 121.624 162.549 121.384 162.549 119.969C162.549 119.155 162.022 118.6 159.904 118.6C154.964 118.6 153.438 122.781 153.207 127.582C153.132 129.406 152.846 131.216 152.356 132.974C150.293 140.337 146.038 145.924 143.263 145.924C141.977 145.924 141.626 144.638 141.626 142.955C141.626 137.655 144.595 131.032 144.595 125.38C144.595 121.227 142.773 118.6 139.341 118.6C135.299 118.6 129.952 123.41 124.893 132.419C126.557 125.519 127.242 118.84 122.312 118.84C121.242 118.856 120.192 119.129 119.25 119.636C118.934 119.784 118.67 120.024 118.492 120.324C118.314 120.624 118.23 120.971 118.251 121.319C118.723 128.664 112.331 147.478 106.272 147.478C105.171 147.478 104.635 146.285 104.635 144.361C104.635 139.052 107.798 127.84 109.389 122.707C109.593 122.041 109.704 121.467 109.704 120.968C109.704 119.562 108.834 118.84 106.864 118.84C104.7 118.84 102.35 119.663 100.084 123.65C99.2885 120.135 96.9113 118.6 93.5904 118.6C88.1424 118.6 82.0557 124.363 79.3825 131.874C75.8025 141.901 68.5877 151.585 58.8751 151.585C50.0599 151.585 45.4072 144.25 45.4072 132.659C45.4072 115.926 57.6913 102.255 66.8024 102.255C71.1592 102.255 73.2405 105.03 73.2405 109.285C73.2405 114.437 70.3635 116.833 70.3635 118.794C70.3635 119.395 70.8633 119.987 71.8528 119.987C75.812 119.987 80.4737 115.334 80.4737 108.989C80.4737 102.643 75.3217 98 66.2105 98C51.1516 98 36 113.152 36 132.567C36 148.015 43.6219 157.329 56.8029 157.329C65.794 157.329 73.6475 150.337 77.8838 142.178C78.3651 148.94 81.4359 152.473 86.1165 152.473C90.279 152.473 93.6457 149.994 96.2172 145.638C97.2073 150.198 99.8341 152.427 103.248 152.427C107.16 152.427 110.435 149.948 113.552 145.342C113.506 148.959 114.329 152.363 117.465 152.363C118.944 152.363 120.711 152.02 121.026 150.725C124.328 137.072 132.487 125.926 134.984 125.926C135.724 125.926 135.928 126.638 135.928 127.48C135.928 131.189 133.31 138.793 133.31 143.649C133.31 148.893 135.539 152.363 140.146 152.363C145.252 152.363 150.441 146.109 153.9 136.97C154.983 145.508 157.323 152.399 160.986 152.399C165.481 152.399 173.464 142.937 178.302 132.919C180.198 133.159 183.047 133.094 185.785 131.161C184.62 134.112 183.935 137.341 183.935 140.568C183.935 149.865 188.375 152.473 192.195 152.473C196.349 152.473 199.716 149.994 202.296 145.638C203.147 149.569 205.321 152.417 209.317 152.417C215.57 152.417 221 146.026 221 140.781C221 139.394 220.408 138.552 219.714 138.552ZM89.9277 147.321C87.402 147.321 86.4125 144.777 86.4125 140.985C86.4125 134.399 90.9172 123.4 95.6811 123.4C97.7623 123.4 98.5486 125.852 98.5486 128.849C98.5486 135.536 94.266 147.321 89.9277 147.321ZM176.424 127.665C174.916 125.87 174.371 123.428 174.371 121.254C174.371 118.572 175.351 116.306 176.526 116.306C177.701 116.306 178.061 117.462 178.061 119.071C178.061 121.763 177.099 125.694 176.424 127.665ZM196.006 147.321C193.482 147.321 192.492 144.398 192.492 140.985C192.492 134.63 196.996 123.4 201.797 123.4C203.878 123.4 204.618 125.833 204.618 128.849C204.618 135.536 200.409 147.321 196.006 147.321Z" fill="white"/>
<linearGradient id="linearGradient" x1="250.093" y1="262.653" x2="9.44602" y2="-2.75629" gradientUnits="userSpaceOnUse">
<stop stop-color="#823AF3"/>
<stop offset="0.36" stop-color="#4B66E1"/>
<stop offset="0.906" stop-color="#01F1C4"/>
</linearGradient>
</svg>