<svg width="256" height="256" title="Figma" viewBox="0 0 256 256" fill="none" xmlns="http://www.w3.org/2000/svg" id="figma">
<style>
#figma {
    rect {fill: #15191C}

    @media (prefers-color-scheme: light) {
        rect {fill: #F4F2ED}
    }
}
</style>
<rect width="256" height="256" rx="40" fill="#15191C"/>
<path d="M71 185.333C71 177.73 74.029 170.439 79.4207 165.063C84.8123 159.687 92.125 156.667 99.75 156.667H128.5V185.333C128.5 192.936 125.471 200.228 120.079 205.604C114.688 210.98 107.375 214 99.75 214C92.125 214 84.8123 210.98 79.4207 205.604C74.029 200.228 71 192.936 71 185.333Z" fill="#24CB71"/>
<path d="M128.5 42V99.3333H157.25C164.875 99.3333 172.188 96.3131 177.579 90.9371C182.971 85.561 186 78.2695 186 70.6667C186 63.0638 182.971 55.7723 177.579 50.3963C172.188 45.0202 164.875 42 157.25 42H128.5Z" fill="#FF7237"/>
<path d="M157.013 156.667C164.638 156.667 171.951 153.646 177.342 148.27C182.734 142.894 185.763 135.603 185.763 128C185.763 120.397 182.734 113.106 177.342 107.73C171.951 102.354 164.638 99.3333 157.013 99.3333C149.388 99.3333 142.075 102.354 136.684 107.73C131.292 113.106 128.263 120.397 128.263 128C128.263 135.603 131.292 142.894 136.684 148.27C142.075 153.646 149.388 156.667 157.013 156.667Z" fill="#00B6FF"/>
<path d="M71 70.6667C71 78.2695 74.029 85.561 79.4207 90.9371C84.8123 96.3131 92.125 99.3333 99.75 99.3333H128.5V42H99.75C92.125 42 84.8123 45.0202 79.4207 50.3963C74.029 55.7723 71 63.0638 71 70.6667Z" fill="#FF3737"/>
<path d="M71 128C71 135.603 74.029 142.894 79.4207 148.27C84.8123 153.646 92.125 156.667 99.75 156.667H128.5V99.3333H99.75C92.125 99.3333 84.8123 102.354 79.4207 107.73C74.029 113.106 71 120.397 71 128Z" fill="#874FFF"/>
</svg>