<svg width="256" height="256" title="Joomla" viewBox="0 0 256 256" fill="none" xmlns="http://www.w3.org/2000/svg" id="joomla">
<style>
#joomla {
    rect {fill: #15191C}

    @media (prefers-color-scheme: light) {
        rect {fill: #F4F2ED}
    }
}
</style>
<rect width="256" height="256" rx="40" fill="#15191C"/>
<path d="M79.8 128.4L77 125.6C68 116.6 65.4 104 68.6 92.6C59.6 90.6 53 82.6 53 73C53 62 62 53 73 53C83 53 91.2 60.2 92.8 69.8C103.6 67.2 115.4 70.2 123.8 78.6L125 79.8L110.2 94.6L109 93.4C104.2 88.6 96.4 88.6 91.6 93.4C86.8 98.2 86.8 106 91.6 110.8L124.8 144L110 158.8L94.4 143.2L79.8 128.4Z" fill="#7AC143"/>
<path d="M96.4 112L129.6 78.8C138.4 70 151.2 67.2 162.4 70.4C163.8 60.6 172.2 53.2 182.2 53.2C193.2 53.2 202.2 62.2 202.2 73.2C202.2 83.4 194.6 91.8 184.8 93C188 104.2 185.2 116.8 176.4 125.6L175.2 126.8L160.8 112L162 110.8C166.8 106 166.8 98.2 162 93.4C157.2 88.6 149.4 88.6 144.6 93.4L111.4 126.6L96.4 112Z" fill="#F9A541"/>
<path d="M163 186.6C151.6 190 138.8 187.4 129.8 178.4L128.6 177.2L143.4 162.4L144.6 163.6C149.4 168.4 157.2 168.4 162 163.6C166.8 158.8 166.8 151 162 146.2L128.8 113L143.6 98.2L177 131.6C185.4 140 188.4 152 185.8 163C195.6 164.4 203 172.8 203 182.8C203 193.8 194 202.8 183 202.8C173 202.6 164.8 195.6 163 186.6Z" fill="#F44321"/>
<path d="M157.2 145L124 178.2C115.4 186.8 103.4 189.6 92.6 187C90.6 196 82.6 202.6 73 202.6C62 202.6 53 193.6 53 182.6C53 173.2 59.6 165.2 68.4 163.2C65.6 152 68.4 140 77 131.4L78.2 130.2L93 145L91.8 146.2C87 151 87 158.8 91.8 163.6C96.6 168.4 104.4 168.4 109.2 163.6L142.4 130.4L157.2 145Z" fill="#5091CD"/>
</svg>