<svg xmlns="http://www.w3.org/2000/svg" viewBox="0 0 1920 1080">
  <defs>
    <linearGradient id="bg" x1="0" y1="0" x2="1" y2="1">
      <stop offset="0%" stop-color="#0b2d5f"/>
      <stop offset="45%" stop-color="#1b5ea6"/>
      <stop offset="100%" stop-color="#2f8bd3"/>
    </linearGradient>
    <radialGradient id="glowA" cx="20%" cy="15%" r="40%">
      <stop offset="0%" stop-color="#ffffff" stop-opacity="0.45"/>
      <stop offset="100%" stop-color="#ffffff" stop-opacity="0"/>
    </radialGradient>
    <radialGradient id="glowB" cx="78%" cy="18%" r="34%">
      <stop offset="0%" stop-color="#9fe8ff" stop-opacity="0.45"/>
      <stop offset="100%" stop-color="#9fe8ff" stop-opacity="0"/>
    </radialGradient>
    <linearGradient id="waveA" x1="0" y1="0" x2="1" y2="0">
      <stop offset="0%" stop-color="#9ad7ff" stop-opacity="0"/>
      <stop offset="45%" stop-color="#9ad7ff" stop-opacity="0.35"/>
      <stop offset="100%" stop-color="#9ad7ff" stop-opacity="0"/>
    </linearGradient>
    <linearGradient id="waveB" x1="0" y1="0" x2="1" y2="0">
      <stop offset="0%" stop-color="#d8f2ff" stop-opacity="0"/>
      <stop offset="50%" stop-color="#d8f2ff" stop-opacity="0.25"/>
      <stop offset="100%" stop-color="#d8f2ff" stop-opacity="0"/>
    </linearGradient>
  </defs>

  <rect width="1920" height="1080" fill="url(#bg)"/>
  <rect width="1920" height="1080" fill="url(#glowA)"/>
  <rect width="1920" height="1080" fill="url(#glowB)"/>

  <path d="M0 760 C380 680 720 860 1120 780 C1430 720 1680 760 1920 700 L1920 1080 L0 1080 Z" fill="url(#waveA)" />
  <path d="M0 860 C420 770 760 940 1110 865 C1420 810 1710 845 1920 790 L1920 1080 L0 1080 Z" fill="url(#waveB)" />
</svg>
