<svg width="256" height="256" title="Adobe Photoshop" viewBox="0 0 256 256" fill="none" xmlns="http://www.w3.org/2000/svg">
<rect width="256" height="256" rx="40" fill="#001E36"/>
<path d="M48 183.894V69.8835C48 69.108 48.3324 68.6648 49.108 68.6648C50.9915 68.6648 52.7643 68.6648 55.3126 68.554C57.9717 68.4432 60.7416 68.4432 63.7332 68.3324C66.7247 68.2216 69.9378 68.2216 73.3725 68.1108C76.8072 68 80.1311 68 83.455 68C92.5404 68 100.075 69.108 106.279 71.4347C111.819 73.3183 116.916 76.4206 121.126 80.5201C124.671 84.0656 127.441 88.3866 129.214 93.1509C130.876 97.8044 131.762 102.569 131.762 107.554C131.762 117.083 129.547 124.95 125.115 131.154C120.683 137.359 114.478 142.012 107.276 144.671C99.7422 147.441 91.4324 148.439 82.347 148.439C79.6879 148.439 77.9152 148.439 76.8072 148.328C75.6992 148.217 74.1481 148.217 72.0429 148.217V183.783C72.1537 184.558 71.5997 185.223 70.8242 185.334C70.7134 185.334 70.6026 185.334 70.381 185.334H49.3296C48.4432 185.334 48 184.891 48 183.894ZM72.1537 90.0486V127.276C73.7049 127.387 75.1452 127.498 76.4748 127.498H82.347C86.6681 127.498 90.9892 126.833 95.0887 125.504C98.6342 124.506 101.737 122.401 104.174 119.631C106.501 116.861 107.609 113.094 107.609 108.219C107.72 104.785 106.833 101.35 105.06 98.3584C103.177 95.4776 100.518 93.2617 97.3046 92.0429C93.2051 90.381 88.7733 89.7162 84.2306 89.827C81.3499 89.827 78.8015 89.827 76.6964 89.9378C74.4805 89.827 72.9293 89.9378 72.1537 90.0486Z" fill="#31A8FF"/>
<path d="M200.9 120.518C197.576 118.745 194.03 117.526 190.263 116.751C186.164 115.864 182.064 115.31 177.854 115.31C175.638 115.199 173.311 115.532 171.206 116.086C169.766 116.418 168.547 117.194 167.771 118.302C167.218 119.188 166.885 120.296 166.885 121.293C166.885 122.29 167.328 123.288 167.993 124.174C168.99 125.393 170.32 126.39 171.76 127.166C174.308 128.495 176.968 129.714 179.627 130.822C185.61 132.816 191.371 135.586 196.689 138.91C200.346 141.237 203.337 144.339 205.442 148.106C207.215 151.652 208.102 155.53 207.991 159.518C208.102 164.726 206.55 169.933 203.67 174.254C200.567 178.686 196.246 182.121 191.26 184.115C185.831 186.442 179.184 187.661 171.206 187.661C166.11 187.661 161.124 187.217 156.138 186.22C152.26 185.556 148.382 184.337 144.837 182.675C144.061 182.232 143.507 181.456 143.618 180.57V161.291C143.618 160.959 143.729 160.515 144.061 160.294C144.393 160.072 144.726 160.183 145.058 160.405C149.379 162.953 153.922 164.726 158.797 165.834C163.007 166.942 167.439 167.496 171.871 167.496C176.081 167.496 179.073 166.942 181.067 165.944C182.84 165.169 184.059 163.285 184.059 161.291C184.059 159.74 183.172 158.299 181.399 156.859C179.627 155.419 175.97 153.757 170.541 151.652C164.891 149.657 159.683 146.998 154.808 143.674C151.374 141.237 148.493 138.024 146.388 134.257C144.615 130.711 143.729 126.833 143.839 122.955C143.839 118.191 145.169 113.648 147.606 109.549C150.376 105.117 154.476 101.571 159.24 99.3555C164.448 96.6964 170.985 95.4776 178.851 95.4776C183.394 95.4776 188.047 95.81 192.59 96.4748C195.914 96.918 199.127 97.8044 202.119 99.0231C202.562 99.1339 203.005 99.5771 203.227 100.02C203.337 100.463 203.448 100.907 203.448 101.35V119.41C203.448 119.853 203.227 120.296 202.894 120.518C201.897 120.739 201.343 120.739 200.9 120.518Z" fill="#31A8FF"/>
</svg>