<svg width="256" height="256" title="PostgreSQL" viewBox="0 0 256 256" fill="none" xmlns="http://www.w3.org/2000/svg" id="postgresql">
<style>
#postgresql {
    rect {fill: #15191C}

    @media (prefers-color-scheme: light) {
        rect {fill: #F4F2ED}
    }
}
</style>
<rect width="256" height="256" rx="40" fill="#15191C"/>
<path d="M200.984 146.729C181.235 150.803 179.877 144.117 179.877 144.117C200.729 113.176 209.446 73.9017 201.924 64.2894C181.402 38.0689 145.878 50.4696 145.285 50.791L145.094 50.8256C141.192 50.0154 136.826 49.5333 131.918 49.4529C122.982 49.3068 116.204 51.7957 111.06 55.6964C111.06 55.6964 47.6883 29.5895 50.6361 88.5304C51.2629 101.069 68.6082 183.407 89.2964 158.537C96.8581 149.443 104.165 141.754 104.165 141.754C107.793 144.164 112.138 145.394 116.692 144.952L117.046 144.652C116.935 145.781 116.986 146.886 117.187 148.193C111.857 154.148 113.424 155.193 102.77 157.386C91.9885 159.608 98.3217 163.563 102.457 164.598C107.47 165.851 119.067 167.627 126.903 156.657L126.591 157.909C128.679 159.582 130.145 168.788 129.899 177.135C129.653 185.481 129.489 191.211 131.134 195.687C132.781 200.163 134.42 210.233 148.427 207.232C160.129 204.724 166.194 198.225 167.038 187.383C167.637 179.676 168.992 180.816 169.077 173.925L170.164 170.663C171.417 160.215 170.363 156.844 177.573 158.412L179.326 158.566C184.632 158.807 191.578 157.712 195.655 155.818C204.432 151.744 209.638 144.942 200.983 146.729H200.984Z" fill="#336791"/>
<path d="M114.769 94.1377C112.99 93.89 111.378 94.1191 110.562 94.7367C110.104 95.084 109.962 95.4864 109.924 95.7633C109.821 96.4971 110.335 97.3086 110.651 97.727C111.545 98.9116 112.851 99.7258 114.143 99.9051C114.33 99.9316 114.517 99.9436 114.702 99.9436C116.857 99.9436 118.817 98.2655 118.989 97.027C119.205 95.4758 116.953 94.4412 114.769 94.1377ZM173.727 94.1868C173.557 92.9709 171.394 92.6243 169.341 92.9099C167.29 93.1954 165.302 94.1211 165.468 95.3397C165.601 96.2873 167.312 97.9049 169.337 97.9049C169.509 97.9049 169.681 97.8936 169.855 97.8691C171.207 97.6818 172.199 96.8232 172.671 96.3284C173.388 95.5741 173.804 94.7334 173.727 94.1868Z" fill="white"/>
<path d="M207.556 146.267C206.803 143.99 204.379 143.257 200.352 144.088C188.396 146.556 184.114 144.847 182.708 143.812C192.002 129.654 199.647 112.54 203.772 96.5721C205.725 89.0085 206.804 81.984 206.893 76.2585C206.99 69.9745 205.92 65.3566 203.712 62.5356C194.813 51.1636 181.751 45.0635 165.939 44.8961C155.069 44.7739 145.885 47.5557 144.105 48.338C140.356 47.4056 136.268 46.8332 131.818 46.7602C123.658 46.628 116.605 48.5817 110.765 52.5641C108.228 51.6198 101.673 49.3693 93.6554 48.0777C79.795 45.8464 68.7809 47.5371 60.9211 53.1053C51.5425 59.7499 47.2128 71.6273 48.0515 88.4068C48.3338 94.052 51.5505 111.419 56.6266 128.05C63.3084 149.94 70.5719 162.332 78.2139 164.882C79.1084 165.18 80.1397 165.388 81.2772 165.388C84.065 165.388 87.4829 164.132 91.039 159.857C95.3763 154.653 99.8631 149.577 104.494 144.632C107.498 146.245 110.798 147.145 114.174 147.235C114.18 147.324 114.189 147.412 114.197 147.5C113.616 148.193 113.047 148.896 112.49 149.608C110.151 152.577 109.665 153.195 102.136 154.745C99.9945 155.188 94.3068 156.36 94.2231 160.347C94.1328 164.703 100.947 166.532 101.723 166.726C104.428 167.404 107.035 167.738 109.52 167.738C115.565 167.738 120.885 165.751 125.137 161.907C125.006 177.436 125.653 192.739 127.518 197.401C129.045 201.218 132.776 210.547 144.56 210.546C146.29 210.546 148.193 210.345 150.287 209.896C162.586 207.259 167.927 201.823 169.993 189.839C171.098 183.434 172.996 168.14 173.888 159.936C175.771 160.524 178.196 160.793 180.817 160.792C186.283 160.792 192.591 159.631 196.547 157.795C200.991 155.731 209.01 150.667 207.556 146.267ZM178.267 90.8307C178.226 93.2525 177.893 95.4512 177.54 97.7462C177.159 100.215 176.766 102.767 176.667 105.864C176.57 108.879 176.946 112.014 177.31 115.045C178.046 121.168 178.801 127.471 175.878 133.691C175.393 132.83 174.96 131.941 174.583 131.028C174.22 130.148 173.431 128.733 172.339 126.776C168.089 119.155 158.139 101.309 163.233 94.0268C164.75 91.8593 168.601 89.6307 178.267 90.8307ZM166.55 49.8002C180.717 50.113 191.924 55.4129 199.858 65.5518C205.944 73.3286 199.243 108.715 179.843 139.242C179.648 138.994 179.452 138.747 179.255 138.5L179.009 138.194C184.022 129.915 183.042 121.724 182.17 114.461C181.811 111.481 181.472 108.666 181.559 106.022C181.648 103.219 182.018 100.816 182.377 98.4913C182.817 95.6272 183.265 92.6635 183.142 89.1698C183.234 88.8033 183.271 88.3703 183.223 87.8563C182.907 84.5061 179.082 74.4795 171.286 65.4044C167.022 60.4405 160.803 54.8856 152.311 51.139C155.964 50.382 160.958 49.6761 166.55 49.8002ZM87.2757 156.728C83.3577 161.438 80.6524 160.535 79.7625 160.239C73.9652 158.305 67.2383 146.052 61.3075 126.622C56.1757 109.809 53.1768 92.9025 52.939 88.1618C52.19 73.1686 55.8244 62.7196 63.742 57.1043C76.6275 47.9668 97.8124 53.436 106.325 56.2098C106.203 56.3306 106.075 56.4435 105.954 56.5664C91.9852 70.6737 92.3166 94.7765 92.3511 96.2501C92.3498 96.8185 92.3976 97.6234 92.4627 98.7303C92.7031 102.784 93.1507 110.33 91.9554 118.874C90.8451 126.814 93.2928 134.586 98.6697 140.196C99.2215 140.771 99.8015 141.318 100.408 141.835C98.0143 144.399 92.8127 150.067 87.2757 156.728ZM102.203 136.81C97.8695 132.288 95.9012 125.998 96.8024 119.551C98.0641 110.525 97.5986 102.664 97.3482 98.4408C97.313 97.8498 97.2818 97.3318 97.2639 96.9234C99.3045 95.1139 108.761 90.0471 115.506 91.5923C118.583 92.2969 120.458 94.3927 121.238 97.9972C125.273 116.659 121.772 124.438 118.959 130.688C118.379 131.976 117.831 133.193 117.364 134.452L117.001 135.426C116.083 137.887 115.229 140.175 114.7 142.348C110.093 142.335 105.611 140.366 102.203 136.81V136.81ZM102.91 161.978C101.565 161.642 100.355 161.059 99.6452 160.574C100.238 160.296 101.293 159.916 103.124 159.539C111.98 157.716 113.348 156.429 116.335 152.636C117.02 151.766 117.796 150.781 118.871 149.58L118.872 149.579C120.474 147.786 121.206 148.09 122.534 148.641C123.611 149.086 124.659 150.436 125.084 151.92C125.285 152.622 125.511 153.952 124.772 154.988C118.532 163.725 109.44 163.613 102.91 161.978ZM149.261 205.11C138.426 207.432 134.59 201.904 132.062 195.584C130.43 191.504 129.628 173.105 130.197 152.787C130.205 152.517 130.166 152.256 130.092 152.01C130.025 151.525 129.924 151.045 129.789 150.574C128.943 147.618 126.881 145.145 124.407 144.12C123.425 143.713 121.621 142.966 119.454 143.52C119.916 141.616 120.717 139.465 121.587 137.136L121.951 136.156C122.361 135.052 122.877 133.908 123.421 132.696C126.365 126.157 130.397 117.199 126.021 96.9633C124.382 89.3837 118.909 85.6822 110.612 86.5421C105.638 87.0568 101.088 89.0636 98.8178 90.2144C98.3297 90.4614 97.8834 90.7005 97.4664 90.9329C98.0999 83.2962 100.493 69.0242 109.446 59.9943C115.083 54.3099 122.591 51.5022 131.737 51.6536C149.76 51.9485 161.317 61.1975 167.84 68.9053C173.46 75.5466 176.504 82.237 177.718 85.8455C168.584 84.9165 162.372 86.7194 159.223 91.2218C152.372 101.015 162.971 120.024 168.065 129.159C168.999 130.833 169.805 132.28 170.059 132.895C171.718 136.915 173.865 139.599 175.433 141.558C175.914 142.159 176.38 142.741 176.735 143.25C173.968 144.047 168.999 145.89 169.452 155.101C169.087 159.723 166.49 181.362 165.17 189.008C163.428 199.108 159.712 202.87 149.261 205.111V205.11ZM194.487 153.356C191.658 154.669 186.924 155.654 182.427 155.866C177.459 156.098 174.931 155.309 174.336 154.824C174.057 149.084 176.193 148.484 178.454 147.849C178.809 147.749 179.156 147.652 179.491 147.535C179.699 147.704 179.926 147.872 180.176 148.037C184.168 150.672 191.289 150.956 201.342 148.881L201.453 148.859C200.097 150.127 197.776 151.828 194.487 153.356Z" fill="white"/>
</svg>