<svg width="256" height="256" title="Replit" viewBox="0 0 256 256" fill="none" xmlns="http://www.w3.org/2000/svg">
<rect width="256" height="256" rx="40" fill="#F26207"/>
<path d="M75 62.375C75 59.8886 75.9877 57.504 77.7459 55.7459C79.504 53.9877 81.8886 53 84.375 53H128.125C130.611 53 132.996 53.9877 134.754 55.7459C136.512 57.504 137.5 59.8886 137.5 62.375V103H84.375C81.8886 103 79.504 102.012 77.7459 100.254C75.9877 98.496 75 96.1114 75 93.625V62.375ZM137.5 103H190.625C193.111 103 195.496 103.988 197.254 105.746C199.012 107.504 200 109.889 200 112.375V143.625C200 146.111 199.012 148.496 197.254 150.254C195.496 152.012 193.111 153 190.625 153H137.5V103ZM75 162.375C75 159.889 75.9877 157.504 77.7459 155.746C79.504 153.988 81.8886 153 84.375 153H137.5V193.625C137.5 196.111 136.512 198.496 134.754 200.254C132.996 202.012 130.611 203 128.125 203H84.375C81.8886 203 79.504 202.012 77.7459 200.254C75.9877 198.496 75 196.111 75 193.625V162.375Z" fill="white"/>
</svg>